<mxfile host="app.diagrams.net" modified="2023-11-15T04:21:46.472Z" agent="Mozilla/5.0 (Windows NT 10.0; Win64; x64) AppleWebKit/537.36 (KHTML, like Gecko) Chrome/119.0.0.0 Safari/537.36" version="22.1.1" etag="0UxguM5IS1stpopteEkq" type="github">
  <diagram name="Страница — 1" id="xq6CPKmbxh16IqJMBdpP">
    <mxGraphModel>
      <root>
        <mxCell id="0" />
        <mxCell id="1" parent="0" />
      </root>
    </mxGraphModel>
  </diagram>
</mxfile>
